# xmcd
#
# Track frame offsets:
#	150
#	17105
#	35162
#	60112
#	76770
#	101992
#	117965
#	133092
#	163305
#	187620
#	212502
#
# Disc length: 3146 seconds
#
# Revision: 0
# Processed by: cddbd v1.5.2PL0 Copyright (c) Steve Scherf et al.
# Submitted via: EasyCDDAExtractor 12.0.1.1
#
DISCID=8c0c480b
DTITLE=Bryan Lee - Heat Seeking Missile
DYEAR=1995
DGENRE=Blues
TTITLE0=Heat Seeking Missile
TTITLE1=Smokin Woman
TTITLE2=Pain
TTITLE3=Lucille
TTITLE4=Why
TTITLE5=So Mean to Me
TTITLE6=Blind Man Boogie
TTITLE7=Cant Stop This Heartache
TTITLE8=Dope Smokin Blues
TTITLE9=Your Love
TTITLE10=Fight for the Light
EXTD=
EXTT0=
EXTT1=
EXTT2=
EXTT3=
EXTT4=
EXTT5=
EXTT6=
EXTT7=
EXTT8=
EXTT9=
EXTT10=
PLAYORDER=
